<svg id="svg" version="1.1" xmlns="http://www.w3.org/2000/svg" xmlns:xlink="http://www.w3.org/1999/xlink" width="400" height="400" viewBox="0, 0, 400,400"><g id="svgg"><path id="path0" d="M212.800 141.249 C 188.929 144.434,177.204 154.555,172.542 176.000 C 170.205 186.754,170.929 202.477,174.213 212.285 C 180.438 230.874,196.769 240.827,221.000 240.799 C 249.163 240.767,265.935 227.569,267.443 204.255 L 267.718 200.000 253.459 200.000 L 239.200 200.000 239.188 201.500 C 239.115 210.912,232.497 217.102,222.072 217.511 C 208.554 218.040,203.532 211.816,202.778 193.600 C 202.181 179.193,203.446 173.438,208.347 168.266 C 214.561 161.708,229.210 162.515,234.434 169.705 C 236.668 172.780,237.175 174.251,238.225 180.700 L 238.436 182.000 253.077 182.000 L 267.718 182.000 267.442 177.700 C 267.159 173.274,266.953 172.193,265.478 167.400 C 259.684 148.563,238.140 137.868,212.800 141.249 " stroke="none" fill="#05b3f2" fill-rule="evenodd"></path><path id="path1" d="M0.000 200.000 L 0.000 400.000 200.000 400.000 L 400.000 400.000 400.000 200.000 L 400.000 0.000 200.000 0.000 L 0.000 0.000 0.000 200.000 M156.026 95.214 C 156.781 95.618,156.800 96.388,156.804 126.314 C 156.809 159.054,156.775 158.430,158.782 162.365 C 162.066 168.802,174.376 173.286,174.403 168.056 C 174.423 164.380,182.608 153.321,188.100 149.549 L 190.400 147.970 190.400 121.628 C 190.400 97.976,190.465 95.261,191.033 95.043 C 192.321 94.549,221.012 94.772,221.520 95.280 C 221.882 95.642,222.000 101.244,222.000 118.037 C 222.000 137.982,222.066 140.340,222.633 140.557 C 222.981 140.691,224.646 140.803,226.333 140.807 C 231.522 140.820,239.122 142.444,244.300 144.647 C 247.645 146.070,248.793 146.681,251.400 148.422 C 261.717 155.316,269.058 169.686,267.941 180.800 L 267.800 182.200 253.000 182.200 L 238.200 182.200 237.887 180.000 C 236.452 169.895,230.753 164.032,222.341 164.005 L 220.882 164.000 219.651 167.768 C 217.117 175.523,212.496 181.624,205.947 185.861 C 202.832 187.877,202.794 187.950,202.819 191.933 C 202.931 209.583,208.557 217.609,220.800 217.585 C 231.048 217.566,237.342 212.544,238.580 203.400 L 239.014 200.200 253.507 200.095 L 268.000 199.990 268.000 201.730 C 268.000 213.399,262.366 225.480,254.000 231.749 C 251.683 233.486,251.531 233.580,247.927 235.511 C 237.017 241.357,216.935 242.640,201.600 238.473 C 189.287 235.126,179.273 226.209,174.790 214.600 C 172.777 209.388,171.220 202.032,171.207 197.674 C 171.196 193.853,170.955 193.600,167.332 193.600 C 158.723 193.600,148.081 190.422,141.000 185.736 C 131.317 179.329,126.569 170.889,125.220 157.684 C 124.421 149.863,124.664 95.719,125.500 95.232 C 126.463 94.671,154.981 94.655,156.026 95.214 M157.120 270.880 C 157.439 271.199,157.600 272.936,157.600 276.051 C 157.600 280.977,157.936 282.000,159.552 282.000 C 161.446 282.000,161.793 281.135,161.933 276.055 C 162.086 270.529,162.217 270.295,165.069 270.477 L 167.000 270.600 167.111 276.225 C 167.264 284.047,165.792 286.040,159.837 286.075 C 153.762 286.110,152.023 283.911,152.009 276.180 C 151.999 270.663,152.126 270.400,154.800 270.400 C 155.812 270.400,156.856 270.616,157.120 270.880 M174.326 270.764 C 174.697 270.964,175.979 272.314,177.175 273.764 C 179.854 277.009,180.000 277.015,180.000 273.880 C 180.000 270.896,180.380 270.400,182.666 270.400 C 185.059 270.400,185.200 270.849,185.200 278.494 C 185.200 285.755,185.120 286.000,182.753 286.000 C 180.569 286.000,180.247 285.791,177.770 282.763 C 174.971 279.342,174.800 279.341,174.800 282.757 C 174.800 285.755,174.615 286.000,172.341 286.000 C 169.644 286.000,169.600 285.880,169.600 278.560 C 169.600 274.767,169.777 271.618,170.014 271.174 C 170.466 270.329,173.064 270.082,174.326 270.764 M192.720 270.880 C 193.057 271.217,193.200 273.466,193.200 278.437 C 193.200 286.235,193.281 286.000,190.600 286.000 C 187.914 286.000,188.000 286.258,188.000 278.224 C 188.000 274.214,188.120 270.813,188.267 270.667 C 188.725 270.208,192.216 270.376,192.720 270.880 M207.977 270.972 C 208.238 271.287,208.395 272.232,208.326 273.072 L 208.200 274.600 204.700 274.716 C 199.407 274.890,199.548 276.800,204.855 276.800 L 207.244 276.800 207.122 278.700 L 207.000 280.600 204.100 280.718 L 201.200 280.835 201.200 283.210 C 201.200 285.887,200.830 286.179,197.762 285.928 L 196.200 285.800 196.090 278.613 C 196.030 274.661,196.069 271.196,196.178 270.913 C 196.478 270.131,207.323 270.185,207.977 270.972 M215.120 270.880 C 215.457 271.217,215.600 273.466,215.600 278.437 C 215.600 286.235,215.681 286.000,213.000 286.000 C 210.314 286.000,210.400 286.258,210.400 278.224 C 210.400 274.214,210.520 270.813,210.667 270.667 C 211.125 270.208,214.616 270.376,215.120 270.880 M231.520 270.880 C 231.784 271.144,232.000 271.918,232.000 272.600 C 232.000 274.517,231.423 274.800,227.520 274.800 C 224.658 274.800,224.000 274.912,224.000 275.400 C 224.000 275.880,224.601 276.000,227.009 276.000 C 232.433 276.000,232.710 279.879,227.301 280.083 C 224.729 280.180,224.186 280.318,224.075 280.900 C 223.956 281.522,224.319 281.600,227.338 281.600 C 231.793 281.600,232.000 281.698,232.000 283.800 C 232.000 285.992,231.975 286.000,225.200 286.000 C 217.679 286.000,218.400 286.802,218.400 278.437 C 218.400 269.731,217.834 270.400,225.200 270.400 C 229.209 270.400,231.191 270.551,231.520 270.880 M242.812 270.840 C 249.287 272.229,250.759 282.197,244.908 285.032 C 243.056 285.929,235.791 286.344,234.455 285.629 C 233.492 285.114,233.118 272.847,234.014 271.174 C 234.505 270.257,239.255 270.077,242.812 270.840 M239.284 278.100 L 239.400 281.400 240.788 281.400 C 243.236 281.400,244.084 277.207,241.981 275.504 C 239.856 273.784,239.156 274.458,239.284 278.100 M125.362 300.907 C 127.370 302.055,128.453 303.534,128.535 305.242 L 128.600 306.600 126.320 306.719 C 124.155 306.833,124.010 306.780,123.436 305.670 C 121.549 302.021,118.034 305.271,119.197 309.590 C 119.877 312.114,122.998 312.128,123.797 309.611 C 124.131 308.557,128.268 308.391,128.661 309.415 C 130.375 313.881,120.909 317.793,116.425 314.473 C 113.536 312.334,112.561 306.764,114.487 303.400 C 116.341 300.162,121.851 298.899,125.362 300.907 M141.640 300.454 C 147.558 302.432,148.258 311.955,142.690 314.740 C 135.282 318.445,127.866 312.281,130.580 304.674 C 131.963 300.795,136.958 298.889,141.640 300.454 M155.691 303.286 L 158.782 306.600 158.797 303.800 C 158.817 300.190,159.007 299.921,161.439 300.076 L 163.400 300.200 163.509 307.571 C 163.630 315.738,163.678 315.584,161.007 315.594 C 159.535 315.600,159.197 315.367,156.512 312.500 L 153.608 309.400 153.604 312.257 C 153.600 315.427,153.457 315.600,150.847 315.600 C 148.469 315.600,148.400 315.379,148.400 307.800 C 148.400 300.164,148.452 300.008,150.980 299.986 C 152.501 299.973,152.790 300.175,155.691 303.286 M179.800 302.400 L 179.800 304.600 177.600 304.800 L 175.400 305.000 175.200 310.200 L 175.000 315.400 173.438 315.528 C 169.975 315.811,170.000 315.851,170.000 309.992 L 170.000 304.800 167.843 304.800 C 165.480 304.800,165.200 304.530,165.200 302.247 C 165.200 300.057,165.509 299.971,172.989 300.091 L 179.800 300.200 179.800 302.400 M193.866 300.969 C 196.331 302.456,196.802 305.890,194.841 308.085 L 193.682 309.382 195.074 312.147 C 196.680 315.335,196.557 315.588,193.400 315.588 C 190.858 315.588,190.694 315.469,189.428 312.700 C 188.060 309.707,187.200 309.638,187.200 312.520 C 187.200 315.377,185.225 316.505,182.233 315.357 C 181.397 315.037,181.275 301.293,182.100 300.448 C 182.941 299.587,192.259 300.000,193.866 300.969 M208.060 300.500 C 209.131 301.373,213.771 314.846,213.139 315.246 C 211.574 316.238,207.600 315.323,207.600 313.971 C 207.600 313.767,206.520 313.600,205.200 313.600 C 203.880 313.600,202.800 313.767,202.800 313.971 C 202.800 314.816,201.454 315.600,200.004 315.600 C 198.134 315.600,197.200 315.276,197.200 314.628 C 197.200 313.869,201.929 301.168,202.441 300.550 C 203.024 299.848,207.214 299.810,208.060 300.500 M225.251 300.565 C 227.632 301.562,229.578 304.550,228.936 306.223 C 228.475 307.424,224.514 306.980,223.826 305.651 C 222.100 302.312,218.409 305.178,219.387 309.097 C 220.093 311.927,224.000 312.534,224.000 309.814 C 224.000 308.457,228.584 308.332,228.937 309.680 C 230.668 316.299,216.892 318.002,214.425 311.474 C 211.704 304.270,218.279 297.644,225.251 300.565 M244.600 302.400 L 244.600 304.600 242.400 304.800 L 240.200 305.000 240.000 310.200 L 239.800 315.400 238.238 315.528 C 234.775 315.811,234.800 315.851,234.800 309.992 L 234.800 304.800 232.643 304.800 C 230.280 304.800,230.000 304.530,230.000 302.247 C 230.000 300.057,230.309 299.971,237.789 300.091 L 244.600 300.200 244.600 302.400 M257.440 300.762 C 262.969 303.273,262.932 312.348,257.381 314.982 C 250.282 318.351,243.121 312.110,245.570 304.690 C 246.893 300.683,252.893 298.697,257.440 300.762 M274.200 300.441 C 278.080 301.498,279.276 305.561,276.518 308.318 L 275.469 309.368 276.922 312.168 C 278.581 315.367,278.482 315.588,275.400 315.588 C 272.854 315.588,272.429 315.297,271.195 312.717 C 269.845 309.895,269.038 309.921,268.876 312.791 C 268.736 315.261,268.435 315.585,266.274 315.594 C 263.205 315.606,263.200 315.595,263.200 308.160 C 263.200 299.594,262.946 299.999,268.314 300.002 C 270.671 300.003,273.320 300.201,274.200 300.441 M290.114 300.590 C 294.035 302.228,294.272 305.586,290.467 305.609 L 289.000 305.618 290.647 306.365 C 297.269 309.373,292.647 316.848,284.939 315.595 C 280.123 314.813,277.226 310.414,281.303 310.076 C 283.149 309.923,283.154 309.793,281.372 308.242 C 276.355 303.880,283.345 297.762,290.114 300.590 M136.620 304.944 C 134.527 307.036,135.580 311.600,138.156 311.600 C 140.159 311.600,141.051 310.009,140.860 306.776 C 140.716 304.331,138.284 303.280,136.620 304.944 M252.164 304.389 C 250.237 305.168,249.886 309.473,251.632 310.900 C 253.707 312.596,256.000 310.997,256.000 307.856 C 256.000 305.007,254.342 303.508,252.164 304.389 M285.200 304.361 C 285.200 304.751,287.339 305.600,288.322 305.600 C 288.818 305.600,288.796 305.459,288.200 304.800 C 287.479 304.004,285.200 303.670,285.200 304.361 M187.272 305.300 C 187.430 306.412,189.582 306.786,190.369 305.838 C 191.125 304.926,190.532 304.400,188.749 304.400 C 187.314 304.400,187.158 304.495,187.272 305.300 M268.872 305.296 C 269.092 306.834,272.400 306.737,272.400 305.192 C 272.400 304.518,272.127 304.400,270.572 304.400 C 268.908 304.400,268.756 304.480,268.872 305.296 M204.650 307.650 C 204.288 309.460,204.323 309.600,205.133 309.600 C 206.227 309.600,206.354 309.294,205.889 307.778 C 205.364 306.068,204.975 306.027,204.650 307.650 M284.600 310.800 C 285.361 311.640,288.000 311.943,288.000 311.190 C 288.000 310.669,286.263 310.000,284.912 310.000 C 283.901 310.000,283.894 310.020,284.600 310.800 " stroke="none" fill="#fbfbfb" fill-rule="evenodd"></path><path id="path2" d="M125.600 127.423 C 125.600 148.708,125.744 160.283,126.025 161.523 C 127.078 166.180,127.302 167.073,127.699 168.200 C 132.836 182.806,144.953 190.824,165.496 193.213 C 171.048 193.858,170.632 194.323,170.949 187.136 C 171.097 183.761,171.412 180.010,171.648 178.800 C 172.101 176.473,173.003 172.204,173.252 171.206 C 173.367 170.744,172.818 170.552,170.800 170.345 C 164.621 169.714,160.476 166.880,158.078 161.648 C 156.124 157.384,156.044 155.939,156.021 124.500 L 156.000 95.200 140.800 95.200 L 125.600 95.200 125.600 127.423 M190.800 121.195 C 190.800 137.721,190.941 147.200,191.188 147.200 C 191.401 147.200,192.166 146.873,192.888 146.473 C 194.558 145.548,199.375 143.608,201.200 143.125 C 204.830 142.164,206.035 141.901,209.200 141.377 C 211.070 141.067,213.950 140.809,215.600 140.803 C 217.250 140.796,219.276 140.679,220.103 140.543 L 221.607 140.294 221.503 117.847 L 221.400 95.400 206.100 95.295 L 190.800 95.190 190.800 121.195 M215.989 164.548 C 208.003 166.543,203.841 172.573,203.321 182.900 C 203.097 187.361,203.033 187.308,206.126 185.251 C 212.238 181.187,216.219 176.028,219.056 168.491 C 220.765 163.950,220.377 163.451,215.989 164.548 " stroke="none" fill="#e30414" fill-rule="evenodd"></path><path id="path3" d="M152.800 276.420 C 152.800 283.837,154.173 285.627,159.826 285.581 C 165.285 285.537,166.600 283.807,166.600 276.672 L 166.600 271.400 164.600 271.400 L 162.600 271.400 162.400 276.241 C 162.178 281.619,161.853 282.404,159.851 282.394 C 157.306 282.381,156.800 281.259,156.800 275.626 L 156.800 271.200 154.800 271.200 L 152.800 271.200 152.800 276.420 M170.577 271.715 C 170.468 271.999,170.429 275.194,170.490 278.815 L 170.600 285.400 172.400 285.400 L 174.200 285.400 174.316 282.100 C 174.459 278.050,174.491 278.049,177.833 282.010 C 180.577 285.262,181.384 285.768,183.452 285.531 L 184.600 285.400 184.600 278.400 L 184.600 271.400 182.700 271.278 L 180.800 271.156 180.800 274.378 C 180.800 278.357,180.433 278.468,177.749 275.303 C 176.677 274.040,175.453 272.600,175.028 272.103 C 174.145 271.070,170.932 270.790,170.577 271.715 M188.491 278.279 L 188.600 285.400 190.600 285.400 L 192.600 285.400 192.600 278.400 L 192.600 271.400 190.491 271.279 L 188.381 271.158 188.491 278.279 M196.491 278.289 L 196.600 285.400 198.600 285.400 L 200.600 285.400 200.800 282.800 L 201.000 280.200 203.900 280.082 L 206.800 279.965 206.800 278.600 L 206.800 277.235 203.900 277.118 L 201.000 277.000 200.876 275.716 L 200.752 274.432 204.276 274.316 L 207.800 274.200 207.800 272.800 L 207.800 271.400 202.091 271.289 L 196.381 271.178 196.491 278.289 M210.891 278.279 L 211.000 285.400 213.000 285.400 L 215.000 285.400 215.000 278.400 L 215.000 271.400 212.891 271.279 L 210.781 271.158 210.891 278.279 M219.291 278.300 L 219.400 285.400 225.200 285.400 L 231.000 285.400 231.123 283.915 L 231.247 282.430 227.323 282.315 C 223.530 282.204,223.396 282.168,223.265 281.245 C 223.076 279.910,223.772 279.613,227.100 279.606 L 230.000 279.600 230.000 278.216 L 230.000 276.832 226.700 276.716 C 223.442 276.601,223.398 276.586,223.275 275.515 L 223.150 274.430 227.075 274.315 L 231.000 274.200 231.124 272.700 L 231.248 271.200 225.215 271.200 L 219.182 271.200 219.291 278.300 M234.577 271.715 C 234.468 271.999,234.429 275.194,234.490 278.815 L 234.600 285.400 237.400 285.531 C 244.511 285.862,248.000 283.529,248.000 278.442 C 248.000 275.057,246.713 272.880,244.051 271.765 C 242.257 271.014,234.861 270.975,234.577 271.715 M242.600 275.030 C 244.669 276.593,243.490 281.610,240.901 282.261 C 239.024 282.732,238.800 282.301,238.800 278.213 L 238.800 274.400 240.300 274.413 C 241.125 274.420,242.160 274.697,242.600 275.030 M119.200 300.760 C 112.929 302.066,111.964 312.136,117.873 314.605 C 122.293 316.451,128.000 314.093,128.000 310.420 C 128.000 309.296,124.529 309.189,124.112 310.300 C 123.567 311.754,121.054 312.558,119.760 311.694 C 118.095 310.582,117.857 306.107,119.382 304.582 C 120.862 303.101,123.288 303.528,123.997 305.393 C 124.607 306.997,128.000 306.909,128.000 305.289 C 128.000 302.124,123.579 299.849,119.200 300.760 M136.800 300.662 C 134.568 301.023,134.010 301.244,132.843 302.225 C 126.003 307.980,133.950 318.236,142.233 314.343 C 149.926 310.727,145.378 299.276,136.800 300.662 M219.534 300.763 C 211.122 302.486,213.148 315.200,221.835 315.200 C 225.452 315.200,229.733 311.833,228.549 309.918 C 227.989 309.012,224.942 309.611,224.063 310.800 C 221.567 314.177,218.068 311.028,218.971 306.216 C 219.499 303.400,222.936 302.756,224.217 305.233 C 225.341 307.406,229.056 306.891,228.311 304.666 C 227.254 301.512,223.667 299.916,219.534 300.763 M251.200 300.757 C 242.401 302.284,244.222 315.200,253.236 315.200 C 258.336 315.200,260.800 312.752,260.800 307.685 C 260.800 302.416,257.086 299.735,251.200 300.757 M284.334 300.766 C 278.568 301.934,278.660 307.748,284.468 309.146 C 287.816 309.952,288.851 310.441,288.715 311.156 C 288.515 312.209,285.155 312.255,284.217 311.219 C 283.292 310.197,280.503 310.066,280.134 311.027 C 278.657 314.878,288.926 316.818,292.118 313.291 C 294.810 310.316,292.844 307.236,287.459 305.993 C 285.016 305.429,284.370 304.800,285.204 303.795 C 285.895 302.962,287.293 303.054,288.308 304.000 C 289.221 304.851,292.149 305.130,292.595 304.408 C 293.844 302.387,288.332 299.956,284.334 300.766 M148.977 301.315 C 148.868 301.599,148.829 304.794,148.890 308.415 L 149.000 315.000 150.800 315.000 L 152.600 315.000 152.720 312.000 C 152.898 307.514,152.888 307.513,156.954 312.120 C 159.632 315.155,159.754 315.237,161.354 315.120 L 163.000 315.000 163.000 308.000 L 163.000 301.000 161.200 301.000 L 159.400 301.000 159.283 304.100 C 159.139 307.924,159.119 307.924,155.575 304.000 C 152.622 300.729,149.664 299.526,148.977 301.315 M165.756 301.371 C 165.089 303.108,165.719 303.796,168.089 303.920 L 170.378 304.039 170.489 309.520 L 170.600 315.000 172.600 315.000 L 174.600 315.000 174.698 310.400 C 174.839 303.838,174.770 304.000,177.408 304.000 L 179.600 304.000 179.600 302.400 L 179.600 300.800 172.787 300.800 C 167.255 300.800,165.934 300.907,165.756 301.371 M182.491 307.900 L 182.600 315.000 184.400 315.000 L 186.200 315.000 186.400 312.400 C 186.673 308.851,187.943 308.656,189.622 311.904 C 191.221 314.999,191.462 315.200,193.582 315.200 C 196.092 315.200,196.093 315.197,194.456 312.042 L 193.032 309.297 194.316 307.834 C 196.104 305.799,196.080 304.000,194.240 302.160 L 192.880 300.800 187.631 300.800 L 182.382 300.800 182.491 307.900 M202.202 302.258 C 201.866 303.060,201.336 304.455,201.023 305.358 C 200.709 306.261,199.883 308.530,199.188 310.400 C 197.458 315.050,197.450 314.977,199.679 315.121 C 201.421 315.233,201.604 315.153,202.189 314.021 C 203.040 312.375,207.227 312.146,208.046 313.700 C 208.698 314.939,209.167 315.187,210.876 315.194 C 213.155 315.203,213.160 314.948,210.999 309.200 C 210.627 308.210,209.962 306.410,209.521 305.200 C 207.739 300.308,208.205 300.800,205.357 300.800 L 202.811 300.800 202.202 302.258 M230.556 301.371 C 229.889 303.108,230.519 303.796,232.889 303.920 L 235.178 304.039 235.289 309.520 L 235.400 315.000 237.400 315.000 L 239.400 315.000 239.498 310.400 C 239.639 303.838,239.570 304.000,242.208 304.000 L 244.400 304.000 244.400 302.400 L 244.400 300.800 237.587 300.800 C 232.055 300.800,230.734 300.907,230.556 301.371 M264.177 301.315 C 264.068 301.599,264.029 304.794,264.090 308.415 L 264.200 315.000 265.348 315.131 C 267.915 315.425,268.351 315.031,268.481 312.297 C 268.658 308.593,269.730 308.588,271.652 312.283 C 273.035 314.940,273.104 315.003,274.779 315.125 C 277.702 315.339,277.788 315.154,276.216 312.033 L 274.814 309.248 275.986 308.075 C 278.156 305.906,277.914 303.068,275.432 301.554 C 273.887 300.612,264.523 300.414,264.177 301.315 M139.516 303.856 C 143.031 304.798,142.018 312.000,138.371 312.000 C 135.978 312.000,135.197 310.986,135.213 307.900 C 135.231 304.253,136.510 303.051,139.516 303.856 M190.426 304.014 C 192.857 305.315,189.788 307.615,187.033 306.557 C 186.276 306.267,186.172 304.158,186.900 303.865 C 187.782 303.509,189.629 303.587,190.426 304.014 M254.860 304.032 C 256.070 304.679,256.902 307.011,256.588 308.871 C 255.820 313.418,250.535 313.119,250.107 308.504 C 249.754 304.703,252.059 302.533,254.860 304.032 M271.900 303.852 C 273.214 304.204,273.175 306.291,271.848 306.624 C 269.855 307.124,268.610 306.689,268.468 305.443 C 268.279 303.787,269.516 303.213,271.900 303.852 M205.938 306.300 C 206.866 308.645,206.713 309.787,205.451 309.931 C 203.758 310.125,203.520 309.614,204.214 307.278 C 204.910 304.933,205.308 304.707,205.938 306.300 " stroke="none" fill="#252525" fill-rule="evenodd"></path><path id="path4" d="M133.300 95.099 C 137.425 95.164,144.175 95.164,148.300 95.099 C 152.425 95.034,149.050 94.981,140.800 94.981 C 132.550 94.981,129.175 95.034,133.300 95.099 M206.200 95.193 L 221.400 95.400 221.503 117.873 L 221.607 140.346 220.503 140.513 C 219.823 140.616,220.090 140.691,221.200 140.708 C 222.190 140.724,222.775 140.646,222.500 140.535 C 222.108 140.377,222.000 135.502,222.000 118.047 C 222.000 101.246,221.882 95.642,221.520 95.280 C 221.160 94.920,217.275 94.823,206.020 94.893 L 191.000 94.986 206.200 95.193 M125.067 95.467 C 124.702 95.832,124.813 154.005,125.185 157.000 C 125.348 158.320,125.509 144.955,125.541 127.300 C 125.574 109.645,125.540 95.200,125.467 95.200 C 125.393 95.200,125.213 95.320,125.067 95.467 M156.023 124.476 C 156.036 140.604,156.195 154.520,156.377 155.400 C 156.564 156.304,156.728 143.664,156.754 126.324 C 156.784 106.254,156.662 95.562,156.400 95.400 C 156.135 95.236,156.008 105.023,156.023 124.476 M190.400 121.655 L 190.200 148.311 192.540 147.129 C 193.828 146.479,194.794 145.861,194.688 145.754 C 194.581 145.648,193.837 145.930,193.035 146.380 C 192.232 146.831,191.402 147.200,191.191 147.200 C 190.949 147.200,190.767 137.481,190.703 121.100 L 190.600 95.000 190.400 121.655 M210.400 141.200 L 209.000 141.495 210.400 141.518 C 211.170 141.530,212.610 141.397,213.600 141.220 L 215.400 140.900 213.600 140.903 C 212.610 140.904,211.170 141.038,210.400 141.200 M228.500 141.076 C 228.885 141.176,229.515 141.176,229.900 141.076 C 230.285 140.975,229.970 140.893,229.200 140.893 C 228.430 140.893,228.115 140.975,228.500 141.076 M205.600 142.000 L 204.600 142.320 205.600 142.320 C 206.150 142.320,207.050 142.176,207.600 142.000 L 208.600 141.680 207.600 141.680 C 207.050 141.680,206.150 141.824,205.600 142.000 M202.400 142.800 C 201.605 143.314,202.604 143.314,203.800 142.800 L 204.600 142.456 203.800 142.434 C 203.360 142.422,202.730 142.587,202.400 142.800 M199.600 143.600 C 198.805 144.114,199.804 144.114,201.000 143.600 L 201.800 143.256 201.000 143.234 C 200.560 143.222,199.930 143.387,199.600 143.600 M185.375 151.700 L 184.200 153.000 185.500 151.825 C 186.215 151.179,186.800 150.594,186.800 150.525 C 186.800 150.216,186.470 150.488,185.375 151.700 M257.000 153.200 C 258.083 154.300,259.060 155.200,259.170 155.200 C 259.280 155.200,258.483 154.300,257.400 153.200 C 256.317 152.100,255.340 151.200,255.230 151.200 C 255.120 151.200,255.917 152.100,257.000 153.200 M181.775 155.300 L 180.600 156.600 181.900 155.425 C 182.615 154.779,183.200 154.194,183.200 154.125 C 183.200 153.816,182.870 154.088,181.775 155.300 M179.375 158.268 C 178.759 159.076,178.459 159.611,178.709 159.456 C 179.221 159.140,180.953 156.800,180.675 156.800 C 180.576 156.800,179.991 157.461,179.375 158.268 M156.834 158.200 C 156.822 158.640,156.987 159.270,157.200 159.600 C 157.714 160.395,157.714 159.396,157.200 158.200 L 156.856 157.400 156.834 158.200 M125.668 161.400 C 125.662 162.060,125.811 162.960,126.000 163.400 C 126.470 164.494,126.470 162.667,126.000 161.200 C 125.688 160.225,125.679 160.230,125.668 161.400 M157.611 160.600 C 157.589 163.116,164.319 169.641,166.884 169.590 C 167.168 169.584,166.320 169.055,165.000 168.414 C 162.157 167.033,160.477 165.397,158.826 162.400 C 158.160 161.190,157.613 160.380,157.611 160.600 M219.500 163.865 C 219.775 163.976,220.011 164.547,220.025 165.133 C 220.051 166.200,220.051 166.200,220.426 165.263 C 220.870 164.155,220.610 163.588,219.676 163.632 C 219.260 163.651,219.192 163.741,219.500 163.865 M215.000 164.400 L 214.200 164.744 215.000 164.732 C 215.440 164.726,216.250 164.576,216.800 164.400 L 217.800 164.080 216.800 164.068 C 216.250 164.062,215.440 164.211,215.000 164.400 M126.456 165.000 C 126.456 165.440,126.611 166.160,126.800 166.600 L 127.144 167.400 127.144 166.600 C 127.144 166.160,126.989 165.440,126.800 165.000 L 126.456 164.200 126.456 165.000 M211.556 165.798 C 208.542 167.368,203.952 173.380,204.014 175.675 C 204.022 175.964,204.626 174.940,205.355 173.400 C 207.061 169.799,209.131 167.488,211.839 166.163 C 213.859 165.175,214.414 164.774,213.700 164.819 C 213.535 164.829,212.570 165.270,211.556 165.798 M232.000 167.325 C 232.000 167.394,232.585 167.979,233.300 168.625 L 234.600 169.800 233.425 168.500 C 232.330 167.288,232.000 167.016,232.000 167.325 M127.433 168.400 C 128.789 174.115,135.387 182.564,141.000 185.775 C 142.187 186.454,142.190 186.453,141.210 185.730 C 135.710 181.672,131.855 177.296,129.643 172.600 C 128.814 170.840,127.924 168.950,127.666 168.400 L 127.196 167.400 127.433 168.400 M218.286 170.417 C 217.914 171.366,217.686 172.219,217.781 172.314 C 218.024 172.558,219.246 169.538,219.091 169.074 C 219.021 168.864,218.659 169.468,218.286 170.417 M168.200 170.000 C 168.640 170.189,169.540 170.335,170.200 170.325 L 171.400 170.305 170.200 170.000 C 169.540 169.832,168.640 169.686,168.200 169.675 L 167.400 169.656 168.200 170.000 M173.073 171.753 C 172.923 172.145,172.811 172.766,172.825 173.133 C 172.842 173.575,172.981 173.474,173.237 172.834 C 173.449 172.303,173.561 171.682,173.485 171.454 C 173.409 171.227,173.224 171.361,173.073 171.753 M172.200 175.600 C 172.046 176.510,172.011 177.344,172.121 177.454 C 172.231 177.564,172.446 176.910,172.600 176.000 C 172.754 175.090,172.789 174.256,172.679 174.146 C 172.569 174.036,172.354 174.690,172.200 175.600 M215.045 176.560 C 212.539 180.200,205.105 186.792,203.500 186.799 C 203.335 186.799,203.177 185.315,203.150 183.500 C 203.105 180.535,203.067 180.383,202.780 182.000 C 202.318 184.595,202.330 188.400,202.800 188.400 C 203.020 188.400,203.200 188.226,203.200 188.012 C 203.200 187.799,204.234 186.963,205.498 186.155 C 209.752 183.433,213.529 179.690,216.069 175.679 C 217.391 173.590,216.653 174.225,215.045 176.560 M203.378 177.778 C 203.227 178.581,203.204 179.337,203.326 179.460 C 203.448 179.582,203.672 179.025,203.822 178.222 C 203.973 177.419,203.996 176.663,203.874 176.540 C 203.752 176.418,203.528 176.975,203.378 177.778 M267.674 179.500 L 267.600 182.000 253.029 182.000 C 240.343 182.000,238.434 181.921,238.270 181.392 C 238.138 180.967,238.101 180.997,238.146 181.492 C 238.206 182.153,239.183 182.207,252.916 182.305 C 269.434 182.423,268.142 182.695,267.897 179.152 L 267.748 177.000 267.674 179.500 M171.490 179.550 C 171.331 180.293,171.221 181.643,171.247 182.550 C 171.292 184.151,171.304 184.134,171.660 182.000 C 172.087 179.435,171.947 177.423,171.490 179.550 M170.720 189.900 C 170.646 192.045,170.718 194.070,170.881 194.400 C 171.043 194.730,171.181 192.975,171.188 190.500 C 171.203 184.970,170.904 184.587,170.720 189.900 M143.200 187.200 C 143.750 187.630,144.380 187.982,144.600 187.982 C 144.820 187.982,144.550 187.630,144.000 187.200 C 143.450 186.770,142.820 186.418,142.600 186.418 C 142.380 186.418,142.650 186.770,143.200 187.200 M145.200 188.195 C 145.200 188.405,147.935 189.611,148.349 189.583 C 148.670 189.562,145.901 188.039,145.500 188.017 C 145.335 188.008,145.200 188.088,145.200 188.195 M149.200 190.000 C 149.530 190.213,150.070 190.388,150.400 190.388 C 150.933 190.388,150.933 190.345,150.400 190.000 C 150.070 189.787,149.530 189.612,149.200 189.612 C 148.667 189.612,148.667 189.655,149.200 190.000 M154.200 191.600 C 154.640 191.789,155.360 191.944,155.800 191.944 L 156.600 191.944 155.800 191.600 C 155.360 191.411,154.640 191.256,154.200 191.256 L 153.400 191.256 154.200 191.600 M157.400 192.400 C 157.840 192.589,158.740 192.738,159.400 192.732 C 160.570 192.721,160.575 192.712,159.600 192.400 C 158.133 191.930,156.306 191.930,157.400 192.400 M162.200 193.200 C 162.860 193.368,164.300 193.504,165.400 193.503 L 167.400 193.500 165.600 193.180 C 164.610 193.003,163.170 192.867,162.400 192.877 L 161.000 192.895 162.200 193.200 M202.914 198.200 C 202.917 199.300,202.995 199.703,203.087 199.095 C 203.179 198.486,203.177 197.586,203.082 197.095 C 202.987 196.603,202.911 197.100,202.914 198.200 M267.728 202.400 C 267.728 203.830,267.801 204.415,267.889 203.700 C 267.978 202.985,267.978 201.815,267.889 201.100 C 267.801 200.385,267.728 200.970,267.728 202.400 M238.862 201.600 C 238.822 202.370,238.696 203.450,238.583 204.000 L 238.377 205.000 238.808 204.014 C 239.044 203.471,239.170 202.391,239.086 201.614 L 238.934 200.200 238.862 201.600 M203.256 202.400 C 203.256 202.730,203.411 203.360,203.600 203.800 C 203.817 204.304,203.944 204.378,203.944 204.000 C 203.944 203.670,203.789 203.040,203.600 202.600 C 203.383 202.096,203.256 202.022,203.256 202.400 M172.056 205.200 C 172.056 205.530,172.211 206.160,172.400 206.600 C 172.617 207.104,172.744 207.178,172.744 206.800 C 172.744 206.470,172.589 205.840,172.400 205.400 C 172.183 204.896,172.056 204.822,172.056 205.200 M266.629 210.229 C 266.481 210.815,266.438 211.372,266.532 211.466 C 266.627 211.560,266.824 211.158,266.971 210.571 C 267.119 209.985,267.162 209.428,267.068 209.334 C 266.973 209.240,266.776 209.642,266.629 210.229 M180.800 225.325 C 180.800 225.394,181.385 225.979,182.100 226.625 L 183.400 227.800 182.225 226.500 C 181.130 225.288,180.800 225.016,180.800 225.325 M256.786 229.100 L 254.600 231.400 256.900 229.214 C 259.037 227.182,259.383 226.800,259.086 226.800 C 259.024 226.800,257.989 227.835,256.786 229.100 M206.200 239.600 C 206.640 239.789,207.270 239.944,207.600 239.944 C 207.978 239.944,207.904 239.817,207.400 239.600 C 206.960 239.411,206.330 239.256,206.000 239.256 C 205.622 239.256,205.696 239.383,206.200 239.600 M234.800 239.600 C 233.996 239.857,233.957 239.923,234.600 239.932 C 235.040 239.938,235.760 239.789,236.200 239.600 C 237.219 239.162,236.168 239.162,234.800 239.600 M228.100 240.676 C 228.485 240.776,229.115 240.776,229.500 240.676 C 229.885 240.575,229.570 240.493,228.800 240.493 C 228.030 240.493,227.715 240.575,228.100 240.676 M152.480 270.880 C 151.646 271.714,151.861 280.656,152.763 282.642 C 154.761 287.041,163.455 287.393,166.311 283.190 C 167.167 281.930,167.214 281.515,167.111 276.225 L 167.000 270.600 165.069 270.477 C 162.217 270.295,162.086 270.529,161.933 276.055 C 161.793 281.135,161.446 282.000,159.552 282.000 C 157.936 282.000,157.600 280.977,157.600 276.051 C 157.600 270.676,157.463 270.400,154.800 270.400 C 153.788 270.400,152.744 270.616,152.480 270.880 M170.014 271.174 C 169.777 271.618,169.600 274.767,169.600 278.560 C 169.600 285.880,169.644 286.000,172.341 286.000 C 174.615 286.000,174.800 285.755,174.800 282.757 C 174.800 279.341,174.971 279.342,177.770 282.763 C 180.247 285.791,180.569 286.000,182.753 286.000 C 185.120 286.000,185.200 285.755,185.200 278.494 C 185.200 270.849,185.059 270.400,182.666 270.400 C 180.380 270.400,180.000 270.896,180.000 273.880 C 180.000 277.015,179.854 277.009,177.175 273.764 C 174.241 270.208,171.132 269.084,170.014 271.174 M188.267 270.667 C 188.120 270.813,188.000 274.214,188.000 278.224 C 188.000 286.258,187.914 286.000,190.600 286.000 C 193.281 286.000,193.200 286.235,193.200 278.437 C 193.200 273.466,193.057 271.217,192.720 270.880 C 192.216 270.376,188.725 270.208,188.267 270.667 M196.178 270.913 C 196.069 271.196,196.030 274.661,196.090 278.613 L 196.200 285.800 197.762 285.928 C 200.830 286.179,201.200 285.887,201.200 283.210 L 201.200 280.835 204.100 280.718 L 207.000 280.600 207.122 278.700 L 207.244 276.800 204.855 276.800 C 199.548 276.800,199.407 274.890,204.700 274.716 L 208.200 274.600 208.326 273.072 C 208.535 270.537,208.206 270.400,201.938 270.400 C 197.779 270.400,196.325 270.530,196.178 270.913 M210.667 270.667 C 210.520 270.813,210.400 274.214,210.400 278.224 C 210.400 286.258,210.314 286.000,213.000 286.000 C 215.681 286.000,215.600 286.235,215.600 278.437 C 215.600 273.466,215.457 271.217,215.120 270.880 C 214.616 270.376,211.125 270.208,210.667 270.667 M218.880 270.880 C 218.073 271.687,218.214 285.443,219.033 285.757 C 219.381 285.891,222.156 286.000,225.200 286.000 C 231.975 286.000,232.000 285.992,232.000 283.800 C 232.000 281.698,231.793 281.600,227.338 281.600 C 224.319 281.600,223.956 281.522,224.075 280.900 C 224.186 280.318,224.729 280.180,227.301 280.083 C 232.710 279.879,232.433 276.000,227.009 276.000 C 224.601 276.000,224.000 275.880,224.000 275.400 C 224.000 274.912,224.658 274.800,227.520 274.800 C 231.423 274.800,232.000 274.517,232.000 272.600 C 232.000 270.536,231.579 270.400,225.200 270.400 C 221.191 270.400,219.209 270.551,218.880 270.880 M234.014 271.174 C 233.118 272.847,233.492 285.114,234.455 285.629 C 235.791 286.344,243.056 285.929,244.908 285.032 C 249.021 283.039,249.789 275.605,246.207 272.460 C 243.845 270.386,234.938 269.447,234.014 271.174 M156.800 275.626 C 156.800 281.259,157.306 282.381,159.851 282.394 C 161.853 282.404,162.178 281.619,162.400 276.241 L 162.600 271.400 164.600 271.400 L 166.600 271.400 166.600 276.672 C 166.600 283.807,165.285 285.537,159.826 285.581 C 154.173 285.627,152.800 283.837,152.800 276.420 L 152.800 271.200 154.800 271.200 L 156.800 271.200 156.800 275.626 M175.028 272.103 C 175.453 272.600,176.677 274.040,177.749 275.303 C 180.433 278.468,180.800 278.357,180.800 274.378 L 180.800 271.156 182.700 271.278 L 184.600 271.400 184.600 278.400 L 184.600 285.400 183.452 285.531 C 181.384 285.768,180.577 285.262,177.833 282.010 C 174.491 278.049,174.459 278.050,174.316 282.100 L 174.200 285.400 172.400 285.400 L 170.600 285.400 170.490 278.815 C 170.429 275.194,170.468 271.999,170.577 271.715 C 170.932 270.790,174.145 271.070,175.028 272.103 M192.600 278.400 L 192.600 285.400 190.600 285.400 L 188.600 285.400 188.491 278.279 L 188.381 271.158 190.491 271.279 L 192.600 271.400 192.600 278.400 M207.800 272.800 L 207.800 274.200 204.276 274.316 L 200.752 274.432 200.876 275.716 L 201.000 277.000 203.900 277.118 L 206.800 277.235 206.800 278.600 L 206.800 279.965 203.900 280.082 L 201.000 280.200 200.800 282.800 L 200.600 285.400 198.600 285.400 L 196.600 285.400 196.491 278.289 L 196.381 271.178 202.091 271.289 L 207.800 271.400 207.800 272.800 M215.000 278.400 L 215.000 285.400 213.000 285.400 L 211.000 285.400 210.891 278.279 L 210.781 271.158 212.891 271.279 L 215.000 271.400 215.000 278.400 M231.124 272.700 L 231.000 274.200 227.075 274.315 L 223.150 274.430 223.275 275.515 C 223.398 276.586,223.442 276.601,226.700 276.716 L 230.000 276.832 230.000 278.216 L 230.000 279.600 227.100 279.606 C 223.772 279.613,223.076 279.910,223.265 281.245 C 223.396 282.168,223.530 282.204,227.323 282.315 L 231.247 282.430 231.123 283.915 L 231.000 285.400 225.200 285.400 L 219.400 285.400 219.291 278.300 L 219.182 271.200 225.215 271.200 L 231.248 271.200 231.124 272.700 M244.051 271.765 C 246.713 272.880,248.000 275.057,248.000 278.442 C 248.000 283.529,244.511 285.862,237.400 285.531 L 234.600 285.400 234.490 278.815 C 234.429 275.194,234.468 271.999,234.577 271.715 C 234.861 270.975,242.257 271.014,244.051 271.765 M238.800 278.213 C 238.800 282.301,239.024 282.732,240.901 282.261 C 244.966 281.240,244.446 274.448,240.300 274.413 L 238.800 274.400 238.800 278.213 M241.981 275.504 C 244.084 277.207,243.236 281.400,240.788 281.400 L 239.400 281.400 239.284 278.100 C 239.156 274.458,239.856 273.784,241.981 275.504 M117.186 300.900 C 112.595 303.217,112.141 311.301,116.425 314.473 C 120.909 317.793,130.375 313.881,128.661 309.415 C 128.268 308.391,124.131 308.557,123.797 309.611 C 122.998 312.128,119.877 312.114,119.197 309.590 C 118.034 305.271,121.549 302.021,123.436 305.670 C 124.010 306.780,124.155 306.833,126.320 306.719 L 128.600 306.600 128.535 305.242 C 128.329 300.970,121.912 298.515,117.186 300.900 M134.200 300.752 C 129.662 302.836,128.541 309.399,132.042 313.387 C 135.318 317.117,143.261 316.320,145.485 312.037 C 149.334 304.622,141.919 297.208,134.200 300.752 M148.880 300.480 C 148.205 301.155,148.205 314.445,148.880 315.120 C 149.385 315.625,151.891 315.770,152.967 315.357 C 153.462 315.167,153.601 314.491,153.604 312.257 L 153.608 309.400 156.512 312.500 C 159.197 315.367,159.535 315.600,161.007 315.594 C 163.678 315.584,163.630 315.738,163.509 307.571 L 163.400 300.200 161.439 300.076 C 159.007 299.921,158.817 300.190,158.797 303.800 L 158.782 306.600 155.691 303.286 C 152.471 299.833,150.386 298.974,148.880 300.480 M165.689 300.471 C 165.173 300.987,165.033 303.098,165.443 304.167 C 165.623 304.636,166.245 304.800,167.843 304.800 L 170.000 304.800 170.000 309.992 C 170.000 315.851,169.975 315.811,173.438 315.528 L 175.000 315.400 175.200 310.200 L 175.400 305.000 177.600 304.800 L 179.800 304.600 179.800 302.400 L 179.800 300.200 172.989 300.091 C 168.029 300.012,166.045 300.115,165.689 300.471 M182.100 300.448 C 181.275 301.293,181.397 315.037,182.233 315.357 C 185.225 316.505,187.200 315.377,187.200 312.520 C 187.200 309.638,188.060 309.707,189.428 312.700 C 190.694 315.469,190.858 315.588,193.400 315.588 C 196.557 315.588,196.680 315.335,195.074 312.147 L 193.682 309.382 194.841 308.085 C 196.802 305.890,196.331 302.456,193.866 300.969 C 192.259 300.000,182.941 299.587,182.100 300.448 M202.441 300.550 C 201.929 301.168,197.200 313.869,197.200 314.628 C 197.200 315.276,198.134 315.600,200.004 315.600 C 201.454 315.600,202.800 314.816,202.800 313.971 C 202.800 313.767,203.880 313.600,205.200 313.600 C 206.520 313.600,207.600 313.767,207.600 313.971 C 207.600 315.323,211.574 316.238,213.139 315.246 C 213.771 314.846,209.131 301.373,208.060 300.500 C 207.214 299.810,203.024 299.848,202.441 300.550 M217.585 300.900 C 212.325 303.552,212.798 313.417,218.272 315.224 C 223.604 316.983,229.980 313.669,228.937 309.680 C 228.584 308.332,224.000 308.457,224.000 309.814 C 224.000 312.534,220.093 311.927,219.387 309.097 C 218.409 305.178,222.100 302.312,223.826 305.651 C 224.514 306.980,228.475 307.424,228.936 306.223 C 230.556 302.000,222.705 298.318,217.585 300.900 M230.489 300.471 C 229.973 300.987,229.833 303.098,230.243 304.167 C 230.423 304.636,231.045 304.800,232.643 304.800 L 234.800 304.800 234.800 309.992 C 234.800 315.851,234.775 315.811,238.238 315.528 L 239.800 315.400 240.000 310.200 L 240.200 305.000 242.400 304.800 L 244.600 304.600 244.600 302.400 L 244.600 300.200 237.789 300.091 C 232.829 300.012,230.845 300.115,230.489 300.471 M249.647 300.550 C 243.835 302.653,243.478 312.399,249.122 314.895 C 254.116 317.104,259.935 314.978,261.182 310.488 C 263.172 303.325,256.903 297.925,249.647 300.550 M263.614 300.774 C 263.377 301.218,263.200 304.367,263.200 308.160 C 263.200 315.595,263.205 315.606,266.274 315.594 C 268.435 315.585,268.736 315.261,268.876 312.791 C 269.038 309.921,269.845 309.895,271.195 312.717 C 272.429 315.297,272.854 315.588,275.400 315.588 C 278.482 315.588,278.581 315.367,276.922 312.168 L 275.469 309.368 276.518 308.318 C 279.276 305.561,278.080 301.498,274.200 300.441 C 271.263 299.640,264.100 299.866,263.614 300.774 M282.386 300.900 C 279.148 302.534,278.683 305.904,281.372 308.242 C 283.154 309.793,283.149 309.923,281.303 310.076 C 277.226 310.414,280.123 314.813,284.939 315.595 C 292.647 316.848,297.269 309.373,290.647 306.365 L 289.000 305.618 290.467 305.609 C 292.529 305.596,293.200 305.253,293.200 304.211 C 293.200 300.716,286.697 298.725,282.386 300.900 M125.693 301.670 C 127.211 302.746,128.000 303.982,128.000 305.289 C 128.000 306.909,124.607 306.997,123.997 305.393 C 123.288 303.528,120.862 303.101,119.382 304.582 C 117.857 306.107,118.095 310.582,119.760 311.694 C 121.054 312.558,123.567 311.754,124.112 310.300 C 124.529 309.189,128.000 309.296,128.000 310.420 C 128.000 315.513,118.770 317.053,115.324 312.536 C 113.033 309.533,113.966 303.132,116.928 301.525 C 119.270 300.254,123.798 300.329,125.693 301.670 M142.452 301.438 C 147.243 303.867,147.104 312.053,142.233 314.343 C 138.852 315.932,134.566 315.321,132.348 312.933 C 129.066 309.400,130.685 301.930,134.931 301.012 C 137.871 300.376,140.672 300.535,142.452 301.438 M225.596 301.398 C 227.313 302.286,229.232 305.435,228.501 306.166 C 227.683 306.983,224.797 306.355,224.217 305.233 C 222.936 302.756,219.499 303.400,218.971 306.216 C 218.068 311.028,221.567 314.177,224.063 310.800 C 224.807 309.794,225.225 309.600,226.652 309.600 C 228.782 309.600,228.923 309.839,228.003 311.894 C 225.842 316.721,217.076 316.289,214.965 311.251 C 212.051 304.295,218.908 297.939,225.596 301.398 M257.799 301.568 C 262.438 304.182,261.832 312.548,256.851 314.635 C 249.778 317.598,243.123 310.970,246.392 304.218 C 248.050 300.792,253.978 299.415,257.799 301.568 M290.901 301.676 C 292.163 302.570,292.948 303.836,292.595 304.408 C 292.149 305.130,289.221 304.851,288.308 304.000 C 287.293 303.054,285.895 302.962,285.204 303.795 C 284.370 304.800,285.016 305.429,287.459 305.993 C 292.844 307.236,294.810 310.316,292.118 313.291 C 288.926 316.818,278.657 314.878,280.134 311.027 C 280.503 310.066,283.292 310.197,284.217 311.219 C 285.155 312.255,288.515 312.209,288.715 311.156 C 288.851 310.441,287.816 309.952,284.468 309.146 C 278.660 307.748,278.568 301.934,284.334 300.766 C 286.457 300.336,289.629 300.775,290.901 301.676 M155.575 304.000 C 159.119 307.924,159.139 307.924,159.283 304.100 L 159.400 301.000 161.200 301.000 L 163.000 301.000 163.000 308.000 L 163.000 315.000 161.354 315.120 C 159.754 315.237,159.632 315.155,156.954 312.120 C 152.888 307.513,152.898 307.514,152.720 312.000 L 152.600 315.000 150.800 315.000 L 149.000 315.000 148.890 308.415 C 148.758 300.571,148.697 300.800,150.930 300.800 C 152.617 300.800,152.799 300.925,155.575 304.000 M179.600 302.400 L 179.600 304.000 177.408 304.000 C 174.770 304.000,174.839 303.838,174.698 310.400 L 174.600 315.000 172.600 315.000 L 170.600 315.000 170.489 309.520 L 170.378 304.039 168.089 303.920 C 166.040 303.813,165.786 303.702,165.668 302.871 C 165.379 300.831,165.486 300.800,172.787 300.800 L 179.600 300.800 179.600 302.400 M194.240 302.160 C 196.080 304.000,196.104 305.799,194.316 307.834 L 193.032 309.297 194.456 312.042 C 196.093 315.197,196.092 315.200,193.582 315.200 C 191.462 315.200,191.221 314.999,189.622 311.904 C 187.943 308.656,186.673 308.851,186.400 312.400 L 186.200 315.000 184.400 315.000 L 182.600 315.000 182.491 307.900 L 182.382 300.800 187.631 300.800 L 192.880 300.800 194.240 302.160 M208.311 301.900 C 208.536 302.505,209.080 303.990,209.521 305.200 C 209.962 306.410,210.627 308.210,210.999 309.200 C 213.160 314.948,213.155 315.203,210.876 315.194 C 209.167 315.187,208.698 314.939,208.046 313.700 C 207.227 312.146,203.040 312.375,202.189 314.021 C 201.604 315.153,201.421 315.233,199.679 315.121 C 197.450 314.977,197.458 315.050,199.188 310.400 C 199.883 308.530,200.709 306.261,201.023 305.358 C 201.336 304.455,201.866 303.060,202.202 302.258 L 202.811 300.800 205.357 300.800 C 207.769 300.800,207.924 300.858,208.311 301.900 M244.400 302.400 L 244.400 304.000 242.208 304.000 C 239.570 304.000,239.639 303.838,239.498 310.400 L 239.400 315.000 237.400 315.000 L 235.400 315.000 235.289 309.520 L 235.178 304.039 232.889 303.920 C 230.840 303.813,230.586 303.702,230.468 302.871 C 230.179 300.831,230.286 300.800,237.587 300.800 L 244.400 300.800 244.400 302.400 M275.432 301.554 C 277.914 303.068,278.156 305.906,275.986 308.075 L 274.814 309.248 276.216 312.033 C 277.788 315.154,277.702 315.339,274.779 315.125 C 273.104 315.003,273.035 314.940,271.652 312.283 C 269.730 308.588,268.658 308.593,268.481 312.297 C 268.351 315.031,267.915 315.425,265.348 315.131 L 264.200 315.000 264.090 308.415 C 264.029 304.794,264.068 301.599,264.177 301.315 C 264.523 300.414,273.887 300.612,275.432 301.554 M136.800 303.896 C 135.028 304.585,134.471 309.671,136.000 311.200 C 138.208 313.408,141.600 311.546,141.600 308.126 C 141.600 304.657,139.532 302.834,136.800 303.896 M186.900 303.865 C 186.172 304.158,186.276 306.267,187.033 306.557 C 188.094 306.964,190.212 306.828,190.720 306.320 C 192.348 304.692,189.456 302.834,186.900 303.865 M251.694 304.015 C 249.883 304.742,249.430 309.465,251.004 311.204 C 252.767 313.153,256.100 311.761,256.588 308.871 C 257.202 305.238,254.737 302.792,251.694 304.015 M268.868 303.950 C 267.838 304.602,268.466 306.585,269.748 306.731 C 271.847 306.971,272.800 306.505,272.800 305.239 C 272.800 303.786,270.379 302.992,268.868 303.950 M140.300 305.098 C 141.288 306.392,141.064 309.938,139.934 310.900 C 137.854 312.670,135.600 311.152,135.600 307.982 C 135.600 304.574,138.528 302.778,140.300 305.098 M255.018 304.982 C 257.029 306.992,255.884 311.600,253.375 311.600 C 252.017 311.600,250.801 310.361,250.537 308.707 C 249.960 305.108,252.791 302.755,255.018 304.982 M288.200 304.800 C 288.796 305.459,288.818 305.600,288.322 305.600 C 287.339 305.600,285.200 304.751,285.200 304.361 C 285.200 303.670,287.479 304.004,288.200 304.800 M190.611 304.818 C 191.076 305.570,189.924 306.446,188.634 306.320 C 186.534 306.115,186.636 304.400,188.749 304.400 C 189.631 304.400,190.469 304.588,190.611 304.818 M272.400 305.192 C 272.400 306.737,269.092 306.834,268.872 305.296 C 268.756 304.480,268.908 304.400,270.572 304.400 C 272.127 304.400,272.400 304.518,272.400 305.192 M204.214 307.278 C 203.520 309.614,203.758 310.125,205.451 309.931 C 206.713 309.787,206.866 308.645,205.938 306.300 C 205.308 304.707,204.910 304.933,204.214 307.278 M205.889 307.778 C 206.354 309.294,206.227 309.600,205.133 309.600 C 204.323 309.600,204.288 309.460,204.650 307.650 C 204.975 306.027,205.364 306.068,205.889 307.778 M286.974 310.390 C 288.419 310.940,288.249 311.600,286.662 311.600 C 285.832 311.600,285.049 311.296,284.600 310.800 C 283.748 309.859,285.006 309.642,286.974 310.390 " stroke="none" fill="#9ea8ac" fill-rule="evenodd"></path></g></svg>